<svg width="615" height="650" viewBox="0 0 615 650" fill="none" xmlns="http://www.w3.org/2000/svg">
<path d="M565.667 309.713C565.667 167.408 450.231 52.0464 307.834 52.0464C165.436 52.0464 50 167.408 50 309.713C50 452.018 165.436 567.379 307.834 567.379C450.231 567.379 565.667 452.018 565.667 309.713Z" fill="#7B4AE2" fill-opacity="0.2"/>
<g filter="url(#filter0_d_515_1800)">
<circle cx="85.8102" cy="239.794" r="35.8102" fill="#090E16"/>
</g>
<path d="M99.2074 233.496C98.7899 233.352 98.3572 233.216 97.9118 233.088C97.985 232.789 98.0522 232.494 98.1119 232.204C99.0927 227.443 98.4514 223.608 96.2617 222.345C94.162 221.134 90.7281 222.396 87.26 225.415C86.9265 225.705 86.5921 226.012 86.2578 226.334C86.035 226.121 85.8127 225.915 85.5909 225.718C81.9562 222.491 78.313 221.131 76.1254 222.397C74.0277 223.612 73.4065 227.217 74.2893 231.729C74.3746 232.165 74.4743 232.61 74.587 233.063C74.0713 233.209 73.5736 233.365 73.0973 233.531C68.836 235.017 66.1146 237.345 66.1146 239.76C66.1146 242.255 69.0361 244.757 73.4745 246.274C73.8247 246.393 74.1882 246.506 74.5627 246.614C74.4412 247.103 74.3354 247.583 74.2467 248.051C73.4048 252.484 74.0622 256.005 76.1544 257.211C78.3153 258.458 81.942 257.177 85.4735 254.09C85.7526 253.846 86.0327 253.587 86.3134 253.316C86.6771 253.666 87.0403 253.997 87.4015 254.308C90.8221 257.252 94.2006 258.441 96.2908 257.231C98.4496 255.981 99.1512 252.199 98.2403 247.598C98.1707 247.246 98.0898 246.887 97.9989 246.522C98.2536 246.447 98.5036 246.369 98.7474 246.288C103.362 244.759 106.364 242.288 106.364 239.76C106.364 237.336 103.554 234.992 99.2074 233.496ZM98.2066 244.656C97.9866 244.729 97.7607 244.799 97.5306 244.868C97.0212 243.255 96.3338 241.54 95.4925 239.769C96.2953 238.039 96.9562 236.346 97.4513 234.744C97.863 234.863 98.2627 234.989 98.6477 235.122C102.372 236.404 104.644 238.3 104.644 239.76C104.644 241.316 102.191 243.336 98.2066 244.656ZM96.5536 247.932C96.9563 249.966 97.0139 251.806 96.7471 253.244C96.5073 254.536 96.0253 255.397 95.4292 255.743C94.1608 256.477 91.4482 255.522 88.5228 253.005C88.1875 252.716 87.8497 252.408 87.5108 252.082C88.6449 250.842 89.7784 249.4 90.8846 247.798C92.8304 247.626 94.6686 247.343 96.3357 246.958C96.4178 247.289 96.4907 247.614 96.5536 247.932ZM79.8364 255.616C78.5972 256.053 77.6101 256.066 77.0135 255.722C75.7439 254.99 75.2161 252.163 75.9361 248.371C76.0185 247.937 76.1167 247.491 76.2298 247.035C77.8786 247.4 79.7034 247.662 81.6538 247.82C82.7675 249.387 83.9337 250.828 85.1089 252.089C84.8521 252.337 84.5964 252.573 84.342 252.795C82.7804 254.16 81.2156 255.129 79.8364 255.616ZM74.0306 244.647C72.068 243.976 70.4472 243.104 69.3363 242.153C68.338 241.298 67.834 240.449 67.834 239.76C67.834 238.295 70.019 236.425 73.6633 235.155C74.1054 235.001 74.5683 234.855 75.0487 234.719C75.5523 236.357 76.213 238.07 77.0103 239.802C76.2027 241.56 75.5326 243.3 75.024 244.958C74.6816 244.859 74.3498 244.756 74.0306 244.647ZM75.9768 231.399C75.2203 227.533 75.7227 224.617 76.9868 223.885C78.3334 223.106 81.3109 224.217 84.4492 227.004C84.6498 227.182 84.8511 227.368 85.0531 227.561C83.8837 228.817 82.7282 230.247 81.6244 231.804C79.7314 231.98 77.9194 232.262 76.2534 232.639C76.1487 232.218 76.0559 231.804 75.9768 231.399ZM93.3384 235.686C92.9401 234.998 92.5312 234.327 92.1144 233.673C93.3986 233.836 94.629 234.051 95.7845 234.315C95.4376 235.427 95.0052 236.589 94.4963 237.781C94.1312 237.087 93.745 236.389 93.3384 235.686ZM86.2583 228.79C87.0514 229.649 87.8457 230.609 88.6269 231.649C87.8396 231.612 87.0427 231.593 86.2391 231.593C85.4432 231.593 84.6521 231.612 83.8698 231.648C84.6518 230.617 85.4529 229.659 86.2583 228.79ZM79.133 235.698C78.7351 236.388 78.3562 237.083 77.9968 237.779C77.4961 236.592 77.0677 235.424 76.7178 234.297C77.8662 234.04 79.0908 233.83 80.3668 233.67C79.9441 234.33 79.5319 235.006 79.133 235.698V235.698ZM80.4036 245.973C79.0852 245.826 77.8422 245.626 76.6941 245.377C77.0496 244.229 77.4874 243.036 77.9987 241.823C78.359 242.519 78.7395 243.215 79.1398 243.906H79.1399C79.5476 244.61 79.97 245.3 80.4036 245.973ZM86.3059 250.852C85.491 249.972 84.6781 249 83.8842 247.953C84.6549 247.984 85.4406 247.999 86.2391 247.999C87.0595 247.999 87.8705 247.981 88.6688 247.945C87.885 249.01 87.0936 249.984 86.3059 250.852ZM94.5127 241.761C95.0506 242.988 95.5041 244.174 95.8642 245.302C94.6972 245.568 93.4372 245.783 92.1097 245.942C92.5275 245.28 92.94 244.597 93.3452 243.894C93.7553 243.183 94.1446 242.471 94.5127 241.761ZM91.8559 243.035C91.2267 244.126 90.5808 245.167 89.925 246.15C88.7307 246.236 87.4968 246.28 86.2391 246.28C84.9866 246.28 83.7683 246.241 82.595 246.165C81.9129 245.169 81.2529 244.124 80.6277 243.044H80.6279C80.0044 241.967 79.4305 240.881 78.9105 239.802C79.4304 238.719 80.0027 237.632 80.6226 236.557L80.6225 236.557C81.2441 235.479 81.8982 234.44 82.5741 233.45C83.7711 233.36 84.9986 233.312 86.2391 233.312H86.2391C87.4852 233.312 88.7143 233.36 89.9109 233.451C90.5765 234.434 91.2262 235.47 91.8502 236.548C92.4813 237.638 93.061 238.718 93.5853 239.777C93.0626 240.855 92.4842 241.945 91.8559 243.035ZM95.4028 223.834C96.7506 224.612 97.2748 227.746 96.428 231.857C96.3739 232.119 96.3131 232.386 96.2471 232.657C94.5772 232.272 92.7639 231.985 90.8655 231.807C89.7595 230.232 88.6135 228.8 87.4631 227.561C87.7724 227.263 88.0812 226.979 88.3888 226.712C91.3602 224.126 94.1375 223.105 95.4028 223.834ZM86.2391 236.166C88.2241 236.166 89.8332 237.775 89.8332 239.76C89.8332 241.745 88.2241 243.354 86.2391 243.354C84.2542 243.354 82.645 241.745 82.645 239.76C82.645 237.775 84.2542 236.166 86.2391 236.166Z" fill="#7B4AE2" fill-opacity="0.5"/>
<g filter="url(#filter1_d_515_1800)">
<circle cx="121.81" cy="472.81" r="35.8102" fill="#090E16"/>
</g>
<path d="M135.207 466.512C134.79 466.368 134.357 466.232 133.912 466.104C133.985 465.805 134.052 465.51 134.112 465.22C135.093 460.459 134.451 456.624 132.262 455.361C130.162 454.15 126.728 455.413 123.26 458.431C122.926 458.721 122.592 459.028 122.258 459.35C122.035 459.137 121.813 458.931 121.591 458.734C117.956 455.507 114.313 454.147 112.125 455.414C110.028 456.628 109.406 460.234 110.289 464.745C110.375 465.181 110.474 465.626 110.587 466.079C110.071 466.225 109.574 466.381 109.097 466.547C104.836 468.033 102.115 470.361 102.115 472.776C102.115 475.271 105.036 477.773 109.474 479.29C109.825 479.409 110.188 479.523 110.563 479.63C110.441 480.119 110.335 480.599 110.247 481.067C109.405 485.5 110.062 489.021 112.154 490.228C114.315 491.474 117.942 490.193 121.474 487.106C121.753 486.862 122.033 486.603 122.313 486.332C122.677 486.682 123.04 487.014 123.401 487.324C126.822 490.268 130.201 491.457 132.291 490.247C134.45 488.997 135.151 485.215 134.24 480.614C134.171 480.263 134.09 479.904 133.999 479.538C134.254 479.463 134.504 479.385 134.747 479.304C139.362 477.776 142.364 475.304 142.364 472.776C142.364 470.352 139.554 468.008 135.207 466.512ZM134.207 477.672C133.987 477.745 133.761 477.815 133.531 477.884C133.021 476.271 132.334 474.556 131.492 472.785C132.295 471.055 132.956 469.362 133.451 467.76C133.863 467.879 134.263 468.005 134.648 468.138C138.372 469.42 140.644 471.316 140.644 472.776C140.644 474.332 138.191 476.352 134.207 477.672ZM132.554 480.948C132.956 482.982 133.014 484.822 132.747 486.26C132.507 487.552 132.025 488.414 131.429 488.759C130.161 489.493 127.448 488.538 124.523 486.021C124.187 485.733 123.85 485.424 123.511 485.098C124.645 483.858 125.778 482.416 126.885 480.815C128.83 480.642 130.669 480.36 132.336 479.974C132.418 480.305 132.491 480.63 132.554 480.948ZM115.836 488.632C114.597 489.069 113.61 489.082 113.013 488.738C111.744 488.006 111.216 485.179 111.936 481.387C112.019 480.953 112.117 480.507 112.23 480.051C113.879 480.416 115.703 480.678 117.654 480.836C118.767 482.403 119.934 483.844 121.109 485.105C120.852 485.353 120.596 485.589 120.342 485.811C118.78 487.176 117.216 488.145 115.836 488.632ZM110.031 477.663C108.068 476.992 106.447 476.12 105.336 475.169C104.338 474.314 103.834 473.465 103.834 472.776C103.834 471.311 106.019 469.441 109.663 468.171C110.105 468.017 110.568 467.871 111.049 467.735C111.552 469.373 112.213 471.086 113.01 472.818C112.203 474.576 111.533 476.316 111.024 477.974C110.682 477.875 110.35 477.772 110.031 477.663ZM111.977 464.415C111.22 460.55 111.723 457.633 112.987 456.902C114.333 456.122 117.311 457.234 120.449 460.02C120.65 460.198 120.851 460.385 121.053 460.577C119.884 461.833 118.728 463.263 117.624 464.821C115.731 464.996 113.919 465.278 112.253 465.655C112.149 465.234 112.056 464.82 111.977 464.415ZM129.338 468.702C128.94 468.014 128.531 467.343 128.114 466.689C129.399 466.852 130.629 467.067 131.784 467.331C131.438 468.443 131.005 469.605 130.496 470.797C130.131 470.104 129.745 469.405 129.338 468.702ZM122.258 461.806C123.051 462.665 123.846 463.625 124.627 464.666C123.84 464.628 123.043 464.609 122.239 464.609C121.443 464.609 120.652 464.628 119.87 464.665C120.652 463.633 121.453 462.675 122.258 461.806ZM115.133 468.714C114.735 469.404 114.356 470.099 113.997 470.795C113.496 469.608 113.068 468.44 112.718 467.313C113.866 467.056 115.091 466.846 116.367 466.686C115.944 467.346 115.532 468.022 115.133 468.714V468.714ZM116.404 478.989C115.085 478.842 113.842 478.643 112.694 478.393C113.05 477.245 113.487 476.052 113.999 474.839C114.359 475.535 114.74 476.231 115.14 476.922H115.14C115.548 477.626 115.97 478.316 116.404 478.989ZM122.306 483.868C121.491 482.988 120.678 482.016 119.884 480.97C120.655 481 121.441 481.015 122.239 481.015C123.06 481.015 123.871 480.997 124.669 480.961C123.885 482.026 123.094 483 122.306 483.868ZM130.513 474.778C131.051 476.004 131.504 477.19 131.864 478.318C130.697 478.584 129.437 478.799 128.11 478.958C128.528 478.296 128.94 477.613 129.345 476.91C129.755 476.199 130.145 475.487 130.513 474.778ZM127.856 476.051C127.227 477.142 126.581 478.183 125.925 479.166C124.731 479.252 123.497 479.296 122.239 479.296C120.987 479.296 119.768 479.257 118.595 479.181C117.913 478.185 117.253 477.14 116.628 476.061H116.628C116.004 474.984 115.431 473.898 114.911 472.818C115.43 471.735 116.003 470.648 116.623 469.573L116.622 469.573C117.244 468.495 117.898 467.456 118.574 466.466C119.771 466.376 120.999 466.329 122.239 466.329H122.239C123.485 466.329 124.714 466.376 125.911 466.467C126.576 467.45 127.226 468.486 127.85 469.564C128.481 470.654 129.061 471.734 129.585 472.793C129.063 473.871 128.484 474.962 127.856 476.051ZM131.403 456.85C132.751 457.628 133.275 460.762 132.428 464.873C132.374 465.135 132.313 465.402 132.247 465.673C130.577 465.288 128.764 465.001 126.865 464.823C125.76 463.248 124.613 461.816 123.463 460.577C123.772 460.279 124.081 459.995 124.389 459.728C127.36 457.142 130.137 456.121 131.403 456.85ZM122.239 469.182C124.224 469.182 125.833 470.791 125.833 472.776C125.833 474.761 124.224 476.37 122.239 476.37C120.254 476.37 118.645 474.761 118.645 472.776C118.645 470.791 120.254 469.182 122.239 469.182Z" fill="#7B4AE2" fill-opacity="0.5"/>
<g filter="url(#filter2_f_515_1800)">
<circle cx="309.624" cy="305.148" r="255.148" fill="#62AEEF" fill-opacity="0.2"/>
</g>
<g filter="url(#filter3_i_515_1800)">
<path fill-rule="evenodd" clip-rule="evenodd" d="M262.635 404.465C299.391 424.056 340.608 421.88 372.901 404.463V447.383L373.266 447.373V472.572H262.635V404.465Z" fill="#BB7D52"/>
<path fill-rule="evenodd" clip-rule="evenodd" d="M262.635 440.226C299.39 459.819 340.607 457.642 372.901 440.226V467.595L397.734 466.977L398.042 466.988C398.042 532.959 240.326 542.834 240.326 466.889L240.942 466.861L262.635 466.972V440.226V440.226Z" fill="#D08B5B"/>
<path fill-rule="evenodd" clip-rule="evenodd" d="M198.067 169.098C285.781 113.249 397.996 133.109 435.909 169.937C446.87 196.314 447.645 221.755 444.42 249.065C451.825 243.751 460.631 244.967 467.569 249.916C470.38 272.577 477.909 317.405 444.169 319.35C432.553 463.956 219.72 481.955 190.95 319.823C157.51 318.669 166.527 273.364 168.616 251.608C176.639 245.504 185.8 248.576 191.487 251.307L198.067 169.098V169.098Z" fill="#D08B5B"/>
<path fill-rule="evenodd" clip-rule="evenodd" d="M185.039 230.339C185.499 231.604 184.002 232.87 179.511 235.172C170.215 239.815 169.4 240.78 169.376 248.053V248.405C169.376 258.185 170.874 260.715 177.322 261.637C183.887 262.558 188.034 264.053 189.186 265.894C189.645 266.7 190.107 270.382 190.107 274.179C190.107 282.349 192.64 293.856 195.75 299.839C204.502 316.87 227.304 325.5 254.943 322.278C268.532 320.551 276.479 317.905 285.116 312.151C298.015 303.522 304.003 292.475 304.924 275.1C305.615 264.513 305.616 264.513 309.071 263.362C313.562 261.752 324.733 261.752 329.34 263.362C332.909 264.628 332.909 264.628 332.909 272.799C332.909 282.234 335.328 293.511 338.552 299.84C347.305 316.87 370.107 325.5 397.631 322.278C411.336 320.552 419.282 317.905 427.92 312.153C440.818 303.523 446.807 292.131 447.958 274.295C448.764 262.558 448.189 263.133 460.857 261.522C467.305 260.717 468.803 258.185 468.803 248.289C468.803 240.464 467.536 238.97 456.826 234.367L450.376 231.604L440.357 228.499L432.987 226.888C428.956 226.082 423.774 225.391 421.585 225.276C419.282 225.276 413.525 223.204 407.766 220.329C398.207 215.61 397.747 215.495 386.461 215.495C373.563 215.495 364.464 218.142 357.093 223.896C354.905 225.621 350.299 227.807 347.074 228.613C343.734 229.419 337.516 231.605 333.255 233.446C322.084 238.164 316.326 237.934 302.046 232.18C295.827 229.65 289.953 227.577 289.148 227.577C288.34 227.577 285.692 225.967 283.274 224.011C275.673 218.027 267.151 215.495 254.022 215.495C242.851 215.495 242.161 215.726 232.257 220.444C225.577 223.666 220.394 225.276 217.284 225.276C214.75 225.391 209.223 226.082 205.077 227.003L185.039 230.339V230.339ZM277.17 245.183C290.988 249.67 295.249 255.768 295.365 271.187C295.48 279.358 295.02 282.005 292.832 286.491C285.232 302.026 263.58 310.772 237.898 308.815C218.206 307.204 208.071 301.681 202.659 289.484C199.204 281.544 198.743 262.558 201.967 256.689C204.962 251.165 210.72 247.369 220.163 244.837C227.534 242.881 231.565 242.651 249.991 242.881C265.883 243.226 272.793 243.802 277.17 245.183V245.183ZM419.972 245.183C433.793 249.67 438.053 255.768 438.169 271.187C438.284 279.358 437.823 282.005 435.635 286.491C428.034 302.026 406.383 310.772 380.701 308.815C361.009 307.204 350.874 301.681 345.461 289.484C342.006 281.544 341.546 262.558 344.77 256.689C347.765 251.165 353.523 247.369 362.966 244.837C370.337 242.881 374.367 242.651 392.793 242.881C408.686 243.226 415.596 243.802 419.972 245.183V245.183Z" fill="#A66F49"/>
<path fill-rule="evenodd" clip-rule="evenodd" d="M288.422 57.332L281.167 62.0501L277.481 58.4827C275.5 58.7137 268.959 53.8804 264.583 63.2009C261.934 68.954 258.595 69.6449 252.837 65.8472C250.533 64.2365 247.654 62.8555 246.503 62.8555C243.969 62.8555 241.55 66.7676 240.514 71.9457C239.708 76.2033 236.944 80.1155 234.641 80.1155C233.835 80.1155 230.84 79.0799 227.961 77.814C223.584 75.8579 222.203 75.7427 219.784 76.7784C217.02 78.0442 216.79 78.7344 216.79 86.3292C216.79 91.8526 215.984 96.1102 214.487 99.3322C212.299 104.165 212.183 104.28 206.771 104.28C197.788 104.28 193.527 108.767 197.903 113.716C200.207 116.132 197.991 117.964 193.5 119C185.208 121.071 183.508 127.063 187.999 132.701C191.109 136.729 190.994 137.304 186.041 139.606C180.859 142.137 180.053 145.014 183.393 148.581C185.926 151.343 185.926 151.458 184.544 166.647C183.163 181.376 183.623 222.455 185.235 226.713C185.696 227.979 184.199 229.244 179.708 231.546C170.264 236.263 169.573 237.184 169.573 244.779C169.573 254.559 171.07 257.091 177.52 258.011C184.084 258.932 188.23 260.427 189.382 262.269C189.842 263.074 190.303 266.756 190.303 270.554C190.303 278.724 192.836 290.23 195.946 296.214C204.698 313.244 227.501 321.874 255.14 318.653C268.73 316.926 276.676 314.28 285.313 308.527C298.211 299.896 304.2 288.849 305.122 271.474C305.812 260.888 305.812 260.888 309.268 259.738C313.759 258.126 324.93 258.126 329.536 259.738C333.107 261.004 333.107 261.004 333.107 269.173C333.107 278.609 335.525 289.886 338.75 296.214C347.502 313.245 370.304 321.875 397.828 318.653C411.533 316.927 419.479 314.28 428.117 308.527C441.015 299.897 447.004 288.505 448.155 270.67C448.961 258.932 448.386 259.508 461.053 257.897C467.503 257.091 469 254.56 469 244.664C469 236.84 467.733 235.344 457.023 230.741L450.573 227.979V216.472C450.458 196.796 449.956 176.314 445.119 171.826C443 172.034 439.576 171.631 436.697 170.25C432.205 168.064 428.5 166.494 425.697 165.113C424.315 166.494 426.965 175.048 430.42 181.952C434.681 190.467 438.481 204.851 439.748 217.278L440.554 224.873L433.184 223.262C429.152 222.456 423.97 221.766 421.782 221.651C419.479 221.651 413.721 219.58 407.963 216.703C398.404 211.985 397.943 211.87 386.658 211.87C373.759 211.87 364.661 214.517 357.291 220.27C355.102 221.996 350.496 224.182 347.272 224.988C343.932 225.793 337.713 227.98 333.452 229.821C322.281 234.539 316.523 234.309 302.242 228.555C296.024 226.024 290.15 223.952 289.344 223.952C288.538 223.952 285.889 222.341 283.47 220.385C275.87 214.402 267.347 211.87 254.219 211.87C243.048 211.87 242.357 212.1 232.453 216.818C225.773 220.04 220.591 221.651 217.481 221.651C214.948 221.766 209.42 222.456 205.274 223.377C193.528 225.909 194.449 227.404 195.37 208.073C196.061 191.503 198.249 177.465 200.783 172.632C203.662 167.223 226.464 155.601 249.037 148.007C277.022 138.687 308.461 135.119 343.932 137.536C374.335 139.492 382.397 142.023 416.024 160.089C427.771 166.418 438.711 171.481 441.245 171.826C445.391 172.401 445.736 172.171 447.003 168.719C449.768 160.779 447.579 140.757 442.972 131.667C439.518 124.994 439.288 122.462 441.245 115.558C442.627 110.725 442.627 109.689 440.9 107.158C439.288 104.741 438.135 104.281 433.529 104.281C430.535 104.396 425.928 104.856 423.28 105.317C418.558 106.237 418.443 106.237 419.019 103.246C421.322 91.9691 418.558 89.4373 407.387 92.3139C403.817 93.2343 400.477 93.81 400.246 93.4646C399.901 93.1198 400.246 89.6676 401.053 85.8706C402.434 79.6569 402.32 78.6213 400.707 76.8948C398.98 75.2841 397.943 75.2841 391.264 76.55C380.554 78.7364 376.523 77.7008 372.607 71.7167C368.577 65.8485 364.891 63.7773 361.091 65.2728C359.018 66.0781 356.83 65.7333 352.684 63.8924C348.307 62.0515 345.774 61.5909 341.858 62.1659C337.828 62.8568 335.639 62.3962 331.839 60.4401C327.924 58.4841 325.735 58.1386 321.014 58.7137C315.947 59.2894 314.104 58.8288 308.231 55.9523C304.546 54.1113 300.169 52.6151 298.557 52.5C296.945 52.5 292.453 54.6864 288.423 57.3333L288.422 57.332ZM277.366 241.557C291.186 246.044 295.447 252.143 295.562 267.562C295.677 275.732 295.216 278.379 293.029 282.866C285.428 298.4 263.777 307.146 238.095 305.19C218.402 303.579 208.268 298.055 202.856 285.858C199.4 277.918 198.94 258.932 202.164 253.064C205.159 247.54 210.917 243.743 220.36 241.211C227.731 239.255 231.762 239.025 250.187 239.255C266.08 239.601 272.99 240.176 277.366 241.557ZM420.169 241.557C433.989 246.044 438.25 252.143 438.365 267.562C438.48 275.732 438.019 278.379 435.832 282.866C428.231 298.4 406.58 307.146 380.898 305.19C361.205 303.579 351.071 298.055 345.659 285.858C342.203 277.918 341.743 258.932 344.967 253.064C347.962 247.54 353.72 243.743 363.163 241.211C370.534 239.255 374.565 239.025 392.991 239.255C408.883 239.601 415.793 240.176 420.169 241.557Z" fill="black"/>
<path fill-rule="evenodd" clip-rule="evenodd" d="M240.087 254.771C233.983 257.647 226.957 264.897 226.957 268.349C226.957 270.995 228.8 270.995 232.37 268.119C241.698 260.754 261.507 260.754 271.641 268.003C273.599 269.269 275.672 270.419 276.363 270.419C278.781 270.419 277.63 266.277 273.945 261.904C269.108 255.921 260.471 252.009 252.293 252.009C248.032 252.009 244.002 252.929 240.087 254.77V254.771V254.771Z" fill="#533824"/>
<path fill-rule="evenodd" clip-rule="evenodd" d="M373.677 254.771C367.573 257.647 360.548 264.897 360.548 268.349C360.548 270.995 362.391 270.995 365.961 268.119C375.289 260.754 395.097 260.754 405.232 268.003C407.189 269.269 409.262 270.419 409.954 270.419C412.372 270.419 411.22 266.277 407.535 261.904C402.698 255.921 394.061 252.009 385.884 252.009C381.623 252.009 377.593 252.929 373.677 254.77L373.677 254.771V254.771Z" fill="#533824"/>
<path fill-rule="evenodd" clip-rule="evenodd" d="M292.256 309.773C293.523 314.721 297.208 318.634 303.657 321.741C308.84 324.272 311.488 324.847 319.089 324.847C326.689 324.847 329.339 324.272 334.521 321.741C340.97 318.634 344.655 314.722 345.922 309.773L346.498 307.242H319.089H291.68L292.256 309.773V309.773Z" fill="#AF754C"/>
<path fill-rule="evenodd" clip-rule="evenodd" d="M185.039 226.003C185.499 227.269 184.002 228.535 179.511 230.836C170.215 235.479 169.4 236.446 169.376 243.718V244.07C169.376 253.85 170.874 256.381 177.322 257.302C183.887 258.222 188.034 259.718 189.186 261.559C189.645 262.365 190.107 266.047 190.107 269.844C190.107 278.014 192.64 289.522 195.75 295.504C204.502 312.535 227.304 321.164 254.943 317.943C268.532 316.216 276.479 313.57 285.116 307.817C298.015 299.187 304.003 288.141 304.924 270.765C305.615 260.178 305.616 260.178 309.071 259.028C313.562 257.418 324.733 257.418 329.34 259.028C332.909 260.293 332.909 260.293 332.909 268.464C332.909 277.899 335.328 289.176 338.552 295.506C347.305 312.535 370.107 321.164 397.631 317.943C411.336 316.217 419.282 313.57 427.92 307.818C440.818 299.188 446.807 287.796 447.958 269.96C448.764 258.222 448.189 258.799 460.857 257.187C467.305 256.382 468.803 253.85 468.803 243.954C468.803 236.13 467.536 234.635 456.826 230.032L450.376 227.269L440.357 224.164L432.987 222.552C428.956 221.747 423.774 221.056 421.585 220.941C419.282 220.941 413.525 218.87 407.766 215.994C398.207 211.276 397.747 211.16 386.461 211.16C373.563 211.16 364.464 213.807 357.093 219.561C354.905 221.286 350.299 223.473 347.074 224.278C343.734 225.084 337.516 227.27 333.255 229.111C322.084 233.829 316.326 233.599 302.046 227.845C295.827 225.315 289.953 223.242 289.148 223.242C288.34 223.242 285.692 221.632 283.274 219.676C275.673 213.692 267.151 211.16 254.022 211.16C242.851 211.16 242.161 211.391 232.257 216.109C225.577 219.331 220.394 220.941 217.284 220.941C214.75 221.056 209.223 221.747 205.077 222.667L185.039 226.003V226.003ZM277.17 240.848C290.988 245.336 295.249 251.434 295.365 266.853C295.48 275.023 295.02 277.67 292.832 282.156C285.232 297.691 263.58 306.437 237.898 304.479C218.206 302.869 208.071 297.346 202.659 285.149C199.204 277.209 198.743 258.222 201.967 252.354C204.962 246.83 210.72 243.034 220.163 240.502C227.534 238.546 231.565 238.316 249.991 238.546C265.883 238.89 272.793 239.467 277.17 240.848V240.848ZM419.972 240.848C433.793 245.336 438.053 251.434 438.169 266.853C438.284 275.023 437.823 277.67 435.635 282.156C428.034 297.691 406.383 306.437 380.701 304.479C361.009 302.869 350.874 297.346 345.461 285.149C342.006 277.209 341.546 258.222 344.77 252.354C347.765 246.83 353.523 243.034 362.966 240.502C370.337 238.546 374.367 238.316 392.793 238.546C408.686 238.89 415.596 239.467 419.972 240.848V240.848Z" fill="#533824"/>
<path fill-rule="evenodd" clip-rule="evenodd" d="M286.958 356.03C288.455 365.581 295.711 375.362 304.694 379.965C311.258 383.417 323.35 384.107 330.26 381.461C340.625 377.434 349.608 366.617 351.22 356.03H286.958V356.03Z" fill="#3E291B"/>
<path d="M359.721 578.002L367.116 571.994C368.83 570.602 371.349 570.861 372.742 572.574C374.136 574.286 373.876 576.802 372.162 578.195L368.583 581.102L394.568 602.978C396.281 604.37 396.541 606.887 395.148 608.599C394.357 609.57 393.205 610.074 392.043 610.074C391.156 610.074 390.263 609.781 389.522 609.179L359.721 584.202C358.787 583.443 358.245 582.305 358.245 581.102C358.245 579.899 358.787 578.76 359.721 578.002V578.002Z" fill="#62AEEF"/>
<path d="M392.56 541.293C394.683 541.31 396.391 543.043 396.374 545.165L396.044 606.263C396.027 608.384 394.291 610.091 392.168 610.073C391.63 610.07 391.119 609.955 390.656 609.752C389.291 609.154 388.341 607.786 388.354 606.201L388.685 545.104C388.702 542.982 390.437 541.276 392.56 541.293V541.293Z" fill="#62AEEF"/>
<path d="M409.437 583.321L412.169 581.102L402.441 573.198C400.727 571.806 400.468 569.29 401.861 567.577C403.254 565.865 405.773 565.605 407.487 566.998L421.03 578.001C421.965 578.76 422.507 579.899 422.507 581.102C422.507 582.305 421.965 583.443 421.03 584.202L414.483 589.521C413.742 590.123 412.849 590.417 411.963 590.417C410.8 590.417 409.648 589.913 408.857 588.942C407.464 587.23 407.724 584.713 409.437 583.321V583.321Z" fill="#C83267"/>
<path fill-rule="evenodd" clip-rule="evenodd" d="M239.624 466.93C205.652 470.236 174.789 482.889 149.107 503.977C127.008 522.046 120.843 536.407 104.663 556.86C137.629 591.033 181.958 619.988 230.298 635.98C262.543 646.58 284.54 650 319.088 650C353.639 650 375.634 646.58 407.881 635.98C456.649 620.396 497.728 594.859 534.759 558.205C509.396 525.495 498.957 504.057 458.091 483.914C440.931 475.365 420.778 469.21 405.346 467.614L398.078 466.959L397.733 466.952L396.939 472.402C393.485 498.392 360.895 517.542 320.241 517.542C279.589 517.542 247.573 498.619 243.426 472.288C242.621 467.045 242.274 466.588 239.626 466.93H239.624V466.93Z" fill="#090E16"/>
<path d="M386.489 560.392L390.339 557.264C391.231 556.539 392.542 556.675 393.267 557.566C393.993 558.457 393.858 559.768 392.965 560.492L391.103 562.006L404.628 573.396C405.521 574.12 405.656 575.431 404.93 576.322C404.519 576.828 403.919 577.09 403.314 577.09C402.853 577.09 402.388 576.938 402.002 576.624L386.489 563.62C386.003 563.225 385.721 562.632 385.721 562.006C385.721 561.38 386.003 560.787 386.489 560.392V560.392Z" fill="white"/>
<path d="M403.584 541.28C404.689 541.289 405.578 542.191 405.569 543.296L405.397 575.106C405.388 576.211 404.485 577.099 403.379 577.09C403.099 577.088 402.834 577.028 402.592 576.923C401.882 576.611 401.387 575.899 401.394 575.074L401.566 543.264C401.575 542.16 402.478 541.271 403.584 541.28V541.28Z" fill="white"/>
<path d="M412.369 563.161L413.791 562.006L408.727 557.891C407.835 557.167 407.7 555.856 408.425 554.965C409.15 554.073 410.461 553.938 411.353 554.663L418.404 560.392C418.89 560.787 419.172 561.38 419.172 562.006C419.172 562.632 418.89 563.225 418.404 563.62L414.996 566.39C414.609 566.703 414.145 566.856 413.684 566.856C413.078 566.856 412.478 566.594 412.067 566.088C411.342 565.196 411.477 563.886 412.369 563.161Z" fill="#62AEEF"/>
</g>
<defs>
<filter id="filter0_d_515_1800" x="0" y="157.984" width="171.62" height="171.62" filterUnits="userSpaceOnUse" color-interpolation-filters="sRGB">
<feFlood flood-opacity="0" result="BackgroundImageFix"/>
<feColorMatrix in="SourceAlpha" type="matrix" values="0 0 0 0 0 0 0 0 0 0 0 0 0 0 0 0 0 0 127 0" result="hardAlpha"/>
<feOffset dy="4"/>
<feGaussianBlur stdDeviation="25"/>
<feComposite in2="hardAlpha" operator="out"/>
<feColorMatrix type="matrix" values="0 0 0 0 0 0 0 0 0 0 0 0 0 0 0 0 0 0 0.5 0"/>
<feBlend mode="normal" in2="BackgroundImageFix" result="effect1_dropShadow_515_1800"/>
<feBlend mode="normal" in="SourceGraphic" in2="effect1_dropShadow_515_1800" result="shape"/>
</filter>
<filter id="filter1_d_515_1800" x="36" y="391" width="171.62" height="171.62" filterUnits="userSpaceOnUse" color-interpolation-filters="sRGB">
<feFlood flood-opacity="0" result="BackgroundImageFix"/>
<feColorMatrix in="SourceAlpha" type="matrix" values="0 0 0 0 0 0 0 0 0 0 0 0 0 0 0 0 0 0 127 0" result="hardAlpha"/>
<feOffset dy="4"/>
<feGaussianBlur stdDeviation="25"/>
<feComposite in2="hardAlpha" operator="out"/>
<feColorMatrix type="matrix" values="0 0 0 0 0 0 0 0 0 0 0 0 0 0 0 0 0 0 0.5 0"/>
<feBlend mode="normal" in2="BackgroundImageFix" result="effect1_dropShadow_515_1800"/>
<feBlend mode="normal" in="SourceGraphic" in2="effect1_dropShadow_515_1800" result="shape"/>
</filter>
<filter id="filter2_f_515_1800" x="4.47626" y="0" width="610.296" height="610.296" filterUnits="userSpaceOnUse" color-interpolation-filters="sRGB">
<feFlood flood-opacity="0" result="BackgroundImageFix"/>
<feBlend mode="normal" in="SourceGraphic" in2="BackgroundImageFix" result="shape"/>
<feGaussianBlur stdDeviation="25" result="effect1_foregroundBlur_515_1800"/>
</filter>
<filter id="filter3_i_515_1800" x="104.663" y="52.5" width="430.096" height="601.5" filterUnits="userSpaceOnUse" color-interpolation-filters="sRGB">
<feFlood flood-opacity="0" result="BackgroundImageFix"/>
<feBlend mode="normal" in="SourceGraphic" in2="BackgroundImageFix" result="shape"/>
<feColorMatrix in="SourceAlpha" type="matrix" values="0 0 0 0 0 0 0 0 0 0 0 0 0 0 0 0 0 0 127 0" result="hardAlpha"/>
<feOffset dy="4"/>
<feGaussianBlur stdDeviation="2"/>
<feComposite in2="hardAlpha" operator="arithmetic" k2="-1" k3="1"/>
<feColorMatrix type="matrix" values="0 0 0 0 0 0 0 0 0 0 0 0 0 0 0 0 0 0 0.25 0"/>
<feBlend mode="normal" in2="shape" result="effect1_innerShadow_515_1800"/>
</filter>
</defs>
</svg>
