<svg width="346" height="344" viewBox="0 0 346 344" fill="none" xmlns="http://www.w3.org/2000/svg">
<path d="M345.07 180.06C346.61 138.65 331.72 96.73 298.92 76.77C282.73 66.92 263.8 61.15 244.86 62C224.54 62.91 205.41 71.18 186.25 78C167.09 84.82 146.34 90.28 126.59 85.44C112.3 81.93 99.7299 73.29 85.5899 69.34C29.8799 53.84 -18.6301 117 8.62994 167.26C15.3199 179.58 25.6299 189.46 34.2999 200.5C42.9699 211.54 50.2399 224.84 49.0699 238.82C48.0699 250.38 41.5099 260.69 38.7799 271.97C33.5599 293.57 43.9199 317.35 61.8299 330.51C79.7399 343.67 103.9 346.78 125.46 341.37C147.02 335.96 166.05 322.69 181.03 306.26C189.03 297.47 196.86 287.18 208.38 284.2C219.38 281.33 230.82 285.99 242.02 288.13C252.383 290.049 263.029 289.834 273.306 287.497C283.583 285.16 293.275 280.751 301.79 274.54C328.89 254.52 343.69 217.5 345.07 180.06Z" fill="#E6E8E6"/>
<path opacity="0.7" d="M345.07 180.06C346.61 138.65 331.72 96.73 298.92 76.77C282.73 66.92 263.8 61.15 244.86 62C224.54 62.91 205.41 71.18 186.25 78C167.09 84.82 146.34 90.28 126.59 85.44C112.3 81.93 99.7299 73.29 85.5899 69.34C29.8799 53.84 -18.6301 117 8.62994 167.26C15.3199 179.58 25.6299 189.46 34.2999 200.5C42.9699 211.54 50.2399 224.84 49.0699 238.82C48.0699 250.38 41.5099 260.69 38.7799 271.97C33.5599 293.57 43.9199 317.35 61.8299 330.51C79.7399 343.67 103.9 346.78 125.46 341.37C147.02 335.96 166.05 322.69 181.03 306.26C189.03 297.47 196.86 287.18 208.38 284.2C219.38 281.33 230.82 285.99 242.02 288.13C252.383 290.049 263.029 289.834 273.306 287.497C283.583 285.16 293.275 280.751 301.79 274.54C328.89 254.52 343.69 217.5 345.07 180.06Z" fill="#E6E8E6"/>
<path d="M36.4299 158.03L37.3299 158.48" stroke="black" stroke-linecap="round" stroke-linejoin="round"/>
<path d="M39.1099 159.38L173.83 227.05" stroke="black" stroke-linecap="round" stroke-linejoin="round" stroke-dasharray="2 2"/>
<path d="M174.72 227.49L175.62 227.94L175.12 227.07" stroke="black" stroke-linecap="round" stroke-linejoin="round"/>
<path d="M174.15 225.35L90.7 77.69" stroke="black" stroke-linecap="round" stroke-linejoin="round" stroke-dasharray="1.98 1.98"/>
<path d="M90.21 76.83L89.72 75.96" stroke="black" stroke-linecap="round" stroke-linejoin="round"/>
<path d="M311 160L177 227" stroke="black" stroke-linecap="round" stroke-linejoin="round" stroke-dasharray="2 2"/>
<path d="M176.46 227.49L175.56 227.94L176.05 227.07" stroke="black" stroke-linecap="round" stroke-linejoin="round"/>
<path d="M177.03 225.35L260.48 77.69" stroke="black" stroke-linecap="round" stroke-linejoin="round" stroke-dasharray="1.98 1.98"/>
<path d="M260.97 76.83L261.46 75.96" stroke="black" stroke-linecap="round" stroke-linejoin="round"/>
<path d="M175.62 227.94V226.94" stroke="black" stroke-linecap="round" stroke-linejoin="round"/>
<path d="M175.62 224.93V48.36" stroke="black" stroke-linecap="round" stroke-linejoin="round" stroke-dasharray="2.02 2.02"/>
<path d="M175.62 47.35V46.35" stroke="black" stroke-linecap="round" stroke-linejoin="round"/>
<path d="M75.2219 72.5016L71.7109 33.125H110.289L106.773 72.4953L90.9766 76.875L75.2219 72.5016Z" fill="#E44F26"/>
<path d="M91 73.5282L103.766 69.9891L106.769 36.3453H91V73.5282Z" fill="#F1662A"/>
<path d="M91 50.9485H84.6094L84.1688 46.0031H91V41.1735H78.8906L79.0063 42.4703L80.1922 55.7781H91V50.9485V50.9485ZM91 63.4906L90.9781 63.4969L85.6 62.0453L85.2563 58.1938H80.4078L81.0844 65.775L90.9781 68.5219L91 68.5157V63.4906Z" fill="#EBEBEB"/>
<path d="M90.9829 50.9485V55.7781H96.9298L96.3704 62.0422L90.9829 63.4953V68.5203L100.884 65.775L100.956 64.9594L102.091 52.2453L102.209 50.9485H90.9829V50.9485ZM90.9829 41.1735V46.0031H102.649L102.745 44.9188L102.966 42.4703L103.081 41.1735H90.9829V41.1735Z" fill="white"/>
<path d="M33 158.866C35.1574 158.866 36.9062 157.117 36.9062 154.959C36.9062 152.802 35.1574 151.053 33 151.053C30.8426 151.053 29.0938 152.802 29.0938 154.959C29.0938 157.117 30.8426 158.866 33 158.866Z" fill="#00D8FF"/>
<path d="M33 163.916C28.3049 164.029 23.6216 163.396 19.125 162.041C17.0478 161.382 15.1105 160.345 13.4109 158.981C12.7624 158.515 12.2223 157.915 11.8277 157.221C11.4331 156.526 11.1934 155.755 11.125 154.959C11.125 152.377 13.9625 149.845 18.7156 148.189C23.3324 146.721 28.1561 146.01 33 146.083C37.7792 146.016 42.5383 146.714 47.0969 148.152C49.0973 148.789 50.969 149.776 52.625 151.067C53.2625 151.511 53.7945 152.09 54.1833 152.763C54.5721 153.435 54.8083 154.185 54.875 154.959C54.875 157.644 51.7031 160.364 46.5938 162.055C42.1843 163.366 37.5997 163.994 33 163.916V163.916ZM33 147.952C28.3658 147.89 23.7513 148.566 19.3297 149.955C14.9547 151.481 12.9938 153.569 12.9938 154.955C12.9938 156.405 15.1016 158.684 19.7297 160.267C24.0314 161.558 28.5103 162.158 33 162.047C37.4006 162.126 41.7874 161.53 46.0078 160.281C50.8125 158.689 53 156.406 53 154.959C52.9212 154.463 52.7402 153.988 52.4686 153.565C52.197 153.142 51.8406 152.78 51.4219 152.502C49.9402 151.356 48.2683 150.482 46.4828 149.917C42.1219 148.548 37.5703 147.884 33 147.952V147.952Z" fill="#00D8FF"/>
<path d="M24.1249 174.442C23.396 174.459 22.6757 174.282 22.0374 173.93C19.7999 172.639 19.0249 168.917 19.9639 163.972C20.9993 159.239 22.7933 154.705 25.2764 150.545C27.6057 146.372 30.5877 142.598 34.1093 139.367C35.6611 137.953 37.4512 136.824 39.3968 136.034C40.1004 135.705 40.8681 135.534 41.6452 135.534C42.4223 135.534 43.1899 135.705 43.8936 136.034C46.2202 137.375 46.9905 141.481 45.9046 146.752C44.8372 151.227 43.0898 155.513 40.7233 159.459C38.476 163.583 35.588 167.324 32.1671 170.542C30.5589 172.012 28.6926 173.172 26.6624 173.962C25.8496 174.264 24.9917 174.426 24.1249 174.442V174.442ZM26.8952 151.473C24.5266 155.457 22.8072 159.792 21.8014 164.316C20.9374 168.87 21.7671 171.609 22.9733 172.306C24.2233 173.03 27.2577 172.344 30.9421 169.125C34.2077 166.042 36.9643 162.461 39.1093 158.516C41.3763 154.743 43.0525 150.646 44.0796 146.366C45.1014 141.405 44.2186 138.367 42.9655 137.645C42.4958 137.465 41.9939 137.385 41.4915 137.409C40.9891 137.433 40.4972 137.561 40.0468 137.784C38.315 138.499 36.7229 139.513 35.3436 140.781C31.9791 143.876 29.1306 147.489 26.9061 151.483L26.8952 151.473Z" fill="#00D8FF"/>
<path d="M41.8703 174.463C39.7531 174.463 37.0641 173.181 34.2641 170.773C30.6808 167.513 27.6484 163.694 25.2844 159.466C22.8324 155.363 21.0526 150.895 20.0125 146.23C19.5614 144.177 19.4778 142.061 19.7656 139.98C19.8322 139.208 20.0673 138.459 20.4544 137.788C20.8416 137.117 21.3713 136.538 22.0063 136.094C24.3297 134.748 28.2719 136.131 32.2953 139.703C35.64 142.863 38.4803 146.517 40.7172 150.538C43.1677 154.544 44.9661 158.915 46.0453 163.486C46.5158 165.614 46.5884 167.81 46.2594 169.964C46.1811 170.758 45.932 171.527 45.529 172.216C45.1261 172.905 44.5789 173.498 43.925 173.956C43.2971 174.304 42.588 174.479 41.8703 174.463V174.463ZM26.9016 158.525C29.1694 162.566 32.0661 166.221 35.4828 169.352C38.9969 172.375 41.7844 173.025 42.9828 172.32C44.2328 171.594 45.1547 168.628 44.2047 163.83C43.1639 159.466 41.4389 155.294 39.0938 151.469C36.9591 147.621 34.248 144.122 31.0547 141.094C27.2672 137.731 24.1953 136.98 22.9438 137.705C22.5537 138.022 22.2336 138.416 22.0036 138.863C21.7737 139.31 21.6389 139.8 21.6078 140.302C21.3594 142.158 21.4403 144.044 21.8469 145.872C22.8474 150.333 24.5543 154.606 26.9031 158.528L26.9016 158.525Z" fill="#00D8FF"/>
<g clip-path="url(#clip0_548_2069)">
<path fill-rule="evenodd" clip-rule="evenodd" d="M318 123C306.95 123 298 131.95 298 143C298 151.85 303.725 159.325 311.675 161.975C312.675 162.15 313.05 161.55 313.05 161.025C313.05 160.55 313.025 158.975 313.025 157.3C308 158.225 306.7 156.075 306.3 154.95C306.075 154.375 305.1 152.6 304.25 152.125C303.55 151.75 302.55 150.825 304.225 150.8C305.8 150.775 306.925 152.25 307.3 152.85C309.1 155.875 311.975 155.025 313.125 154.5C313.3 153.2 313.825 152.325 314.4 151.825C309.95 151.325 305.3 149.6 305.3 141.95C305.3 139.775 306.075 137.975 307.35 136.575C307.15 136.075 306.45 134.025 307.55 131.275C307.55 131.275 309.225 130.75 313.05 133.325C314.65 132.875 316.35 132.65 318.05 132.65C319.75 132.65 321.45 132.875 323.05 133.325C326.875 130.725 328.55 131.275 328.55 131.275C329.65 134.025 328.95 136.075 328.75 136.575C330.025 137.975 330.8 139.75 330.8 141.95C330.8 149.625 326.125 151.325 321.675 151.825C322.4 152.45 323.025 153.65 323.025 155.525C323.025 158.2 323 160.35 323 161.025C323 161.55 323.375 162.175 324.375 161.975C328.345 160.635 331.795 158.083 334.24 154.679C336.684 151.275 337.999 147.191 338 143C338 131.95 329.05 123 318 123Z" fill="black"/>
</g>
<path d="M160.222 42.5016L156.712 3.125H195.287L191.773 42.4953L175.976 46.875L160.222 42.5016Z" fill="#1572B6"/>
<path d="M176 43.5282L188.766 39.9891L191.769 6.34534H176V43.5282Z" fill="#33A9DC"/>
<path d="M176 20.6109H182.391L182.831 15.6656H176V10.8359H188.109L187.994 12.1312L186.808 25.4406H176V20.6109V20.6109Z" fill="white"/>
<path d="M176.03 33.1531L176.008 33.1594L170.63 31.7062L170.286 27.8547H165.438L166.114 35.4375L176.006 38.1844L176.03 38.1781V33.1531V33.1531Z" fill="#EBEBEB"/>
<path d="M181.98 25.236L181.398 31.7032L176.012 33.1563V38.1813L185.912 35.4375L185.986 34.6219L186.825 25.236H181.98V25.236Z" fill="white"/>
<path d="M176.017 10.8359V15.6656H164.352L164.255 14.5797L164.034 12.1312L163.919 10.8359H176.017V10.8359ZM176 20.6109V25.4406H170.689L170.592 24.3547L170.373 21.9063L170.258 20.6109H176V20.6109Z" fill="#EBEBEB"/>
<g clip-path="url(#clip1_548_2069)">
<path d="M261 35H301V75H261V35Z" fill="#F7DF1E"/>
<path d="M271.517 68.4269L274.578 66.5744C275.169 67.6214 275.706 68.5074 276.995 68.5074C278.23 68.5074 279.009 68.0242 279.009 66.1449V53.3639H282.768V66.198C282.768 70.0913 280.486 71.8635 277.156 71.8635C274.149 71.8635 272.403 70.3061 271.517 68.4266M284.81 68.0241L287.87 66.2521C288.676 67.5678 289.723 68.5344 291.576 68.5344C293.133 68.5344 294.126 67.7556 294.126 66.6816C294.126 65.3928 293.106 64.9363 291.388 64.1847L290.448 63.7816C287.736 62.6274 285.937 61.1774 285.937 58.1164C285.937 55.2971 288.085 53.1489 291.442 53.1489C293.831 53.1489 295.55 53.9814 296.785 56.1563L293.858 58.036C293.213 56.8814 292.515 56.425 291.441 56.425C290.34 56.425 289.642 57.1231 289.642 58.036C289.642 59.1636 290.34 59.6203 291.951 60.3185L292.891 60.7211C296.086 62.0906 297.885 63.4867 297.885 66.628C297.885 70.0114 295.227 71.8639 291.656 71.8639C288.166 71.8639 285.91 70.1992 284.809 68.0242" fill="black"/>
</g>
<defs>
<clipPath id="clip0_548_2069">
<rect width="40" height="40" fill="white" transform="translate(298 123)"/>
</clipPath>
<clipPath id="clip1_548_2069">
<rect width="40" height="40" fill="white" transform="translate(261 35)"/>
</clipPath>
</defs>
</svg>
